<svg width="40" height="40" viewBox="0 0 40 40" fill="none" xmlns="http://www.w3.org/2000/svg">
<path d="M20.0273 32.2545V40C33.1093 40 43.2895 27.3602 39.0081 13.6275C37.1053 7.64017 32.3482 2.84085 26.3542 0.98764C12.6538 -3.28899 0 6.9274 0 19.9949H7.75405C7.75405 11.8218 15.8887 5.45434 24.5466 8.59054C27.7338 9.73097 30.3026 12.2969 31.4443 15.4807C34.584 24.129 28.2571 32.2545 20.0273 32.2545Z" fill="#0069FF"/>
<path d="M12.3193 32.3021H20.0258V24.6042H12.3193V32.3021Z" fill="#0069FF"/>
<path d="M12.3184 38.2417H6.37207V32.3021L12.3193 32.3021L12.3184 38.2417Z" fill="#0069FF"/>
<path d="M1.38672 32.3021H6.33409V27.3602H1.38672V32.3021Z" fill="#0069FF"/>
</svg>
