<svg fill="none" height="72" viewBox="0 0 72 72" width="72" xmlns="http://www.w3.org/2000/svg"><g stroke="#003f99" stroke-width="2"><circle cx="36" cy="36" fill="#cee0fa" r="26"/><ellipse cx="36" cy="36" rx="10" ry="26"/><ellipse cx="36" cy="36" rx="10" ry="26" transform="matrix(0 1 -1 0 72 0)"/><circle cx="50.5" cy="21.5" fill="#fff" r="12.5"/><path d="m44 18s.7651-1 2-1 2 1 2 1" stroke-linecap="round"/><path d="m56 24c-1.3246 2.057-3.0534 3-5.5 3s-4.1754-.943-5.5-3" stroke-linecap="round"/><path d="m53 18s.7651-1 2-1 2 1 2 1" stroke-linecap="round"/></g><path d="m41 13-1-2 3 .5z" fill="#003f99"/><path d="m60 32-1-2 3 .5z" fill="#003f99"/></svg>