<svg fill="none" height="72" viewBox="0 0 72 72" width="72" xmlns="http://www.w3.org/2000/svg"><g stroke="#003f99" stroke-width="2"><circle cx="37" cy="47" fill="#cee0fa" r="18"/><path d="m28.2324 31.9546-11-19.0526"/><path d="m31.7228 8-12.9904 7.5 4.5 7.7942 6.0622-3.5.384 2.6651 14.7224-8.5-4.8481-2.3971.3481-5.39714-7.7942 4.50004z"/><ellipse cx="36.9999" cy="46.9999" rx="10" ry="18" transform="matrix(-.8660254 .5 -.5 -.8660254 92.542703 69.203057)"/></g><circle cx="16.732" cy="12.036" fill="#003f99" r="2" transform="matrix(.8660254 -.5 .5 .8660254 -3.776337 9.978518)"/><path d="m58.0311 16.2673c.1611-.4354.7767-.4354.9378 0l1.2069 3.2615c.0506.1368.1586.2448.2954.2954l3.2615 1.2069c.4354.1611.4354.7767 0 .9378l-3.2615 1.2069c-.1368.0506-.2448.1586-.2954.2954l-1.2069 3.2615c-.1611.4354-.7767.4354-.9378 0l-1.2069-3.2615c-.0506-.1368-.1586-.2448-.2954-.2954l-3.2615-1.2069c-.4354-.1611-.4354-.7767 0-.9378l3.2615-1.2069c.1368-.0506.2448-.1586.2954-.2954z" fill="#cee0fa" stroke="#003f99" stroke-width="2"/><path d="m10 30v6" stroke="#003f99" stroke-linecap="round" stroke-width="2"/><path d="m13 33h-6" stroke="#003f99" stroke-linecap="round" stroke-width="2"/></svg>