<svg fill="none" height="72" viewBox="0 0 72 72" width="72" xmlns="http://www.w3.org/2000/svg"><path clip-rule="evenodd" d="m51.3327 59c6.4669-4.7297 10.6673-12.3743 10.6673-21 0-14.3594-11.6406-26-26-26s-26 11.6406-26 26c0 8.6257 4.2004 16.2703 10.6673 21z" fill="#cee0fa" fill-rule="evenodd"/><path d="m51.3327 59v1h.3267l.2637-.1928zm-30.6654 0-.5904.8072.2637.1928h.3267zm40.3327-21c0 8.2932-4.0371 15.6433-10.2576 20.1928l1.1807 1.6144c6.7133-4.91 11.0769-12.8491 11.0769-21.8072zm-25-25c13.8071 0 25 11.1929 25 25h2c0-14.9117-12.0883-27-27-27zm-25 25c0-13.8071 11.1929-25 25-25v-2c-14.9117 0-27 12.0883-27 27zm10.2576 20.1928c-6.2205-4.5495-10.2576-11.8996-10.2576-20.1928h-2c0 8.9581 4.3636 16.8972 11.0769 21.8072zm-.5903 1.8072h30.6654v-2h-30.6654z" fill="#003f99"/><g stroke="#003f99" stroke-width="2"><path d="m36 12v6" stroke-linecap="round"/><path d="m17.6152 19.6152 4.2427 4.2427" stroke-linecap="round"/><path d="m54.3848 19.6152-4.2427 4.2426" stroke-linecap="round"/><path d="m10 38h6" stroke-linecap="round"/><path d="m56 38h6" stroke-linecap="round"/><path d="m50.1426 52.1421 4.2426 4.2426" stroke-linecap="round"/><path d="m21.8574 52.142-4.2426 4.2427" stroke-linecap="round"/><path d="m31.9733 35.4571 11.6223-11.7778c.3618-.3666.9746-.0128.838.4838l-4.3887 15.9541-4.0358-2.3301z"/><circle cx="36" cy="38" fill="#fff" r="6"/><rect fill="#fff" height="5" rx="1" width="16" x="28" y="49"/><path d="m39 49v5" stroke-linecap="round"/><path d="m33 49v5" stroke-linecap="round"/></g></svg>